<?xml version="1.0" standalone="no"?>
<!DOCTYPE svg PUBLIC "-//W3C//DTD SVG 20010904//EN"
 "http://www.w3.org/TR/2001/REC-SVG-20010904/DTD/svg10.dtd">
<svg version="1.0" xmlns="http://www.w3.org/2000/svg"
 width="150.000000pt" height="150.000000pt" viewBox="0 0 150.000000 150.000000"
 preserveAspectRatio="xMidYMid meet">
<metadata>
Created by potrace 1.14, written by Peter Selinger 2001-2017
</metadata>
<g transform="translate(0.000000,150.000000) scale(0.100000,-0.100000)"
fill="#000000" stroke="none">
<path d="M117 1480 c-49 -24 -94 -75 -107 -120 -15 -53 -13 -1171 2 -1222 15
-51 79 -115 129 -128 24 -7 244 -10 626 -8 569 3 589 4 627 23 21 12 53 40 70
64 l31 43 3 591 c2 432 0 604 -9 635 -15 53 -78 118 -127 132 -24 6 -252 10
-622 9 -553 0 -587 -1 -623 -19z"/>
</g>
</svg>
