<svg xmlns="http://www.w3.org/2000/svg" version="1.1" xmlns:xlink="http://www.w3.org/1999/xlink" xmlns:svgjs="http://svgjs.com/svgjs" width="133" height="154"><svg width="133" height="154" viewBox="0 0 133 154" fill="none" xmlns="http://www.w3.org/2000/svg">
<path d="M75.9915 2.63883L123.509 31.1042C129.382 34.6226 133 41.1251 133 48.1619V105.092C133 112.13 129.382 118.632 123.509 122.15L75.9915 150.615C70.1183 154.134 62.8818 154.134 57.0086 150.615L9.49147 122.15C3.61815 118.632 0 112.13 0 105.092V48.1619C0 41.1251 3.61815 34.6226 9.49147 31.1042L57.0086 2.63883C62.8818 -0.879611 70.1183 -0.879611 75.9915 2.63883Z" fill="#0A192F"></path>
<path d="M45.8549 113.558H89.988V102.371H58.717V39.888H45.8549V113.558Z" fill="#62F9D5"></path>
</svg><style>@media (prefers-color-scheme: light) { :root { filter: none; } }
</style></svg>