<svg width="160" height="47" viewBox="0 0 160 47" fill="none" xmlns="http://www.w3.org/2000/svg">
<path d="M5.191 34.384C3.751 34.384 2.567 33.968 1.639 33.136C0.743 32.272 0.295 31.216 0.295 29.968C0.295 28.688 0.743 27.616 1.639 26.752C2.567 25.888 3.751 25.456 5.191 25.456C6.599 25.456 7.751 25.888 8.647 26.752C9.575 27.616 10.039 28.688 10.039 29.968C10.039 31.216 9.575 32.272 8.647 33.136C7.751 33.968 6.599 34.384 5.191 34.384ZM23.1059 27.664H33.8579V34H14.8979V0.303999H23.1059V27.664ZM36.1409 20.56C36.1409 17.808 36.6529 15.392 37.6769 13.312C38.7329 11.232 40.1569 9.632 41.9489 8.512C43.7409 7.392 45.7409 6.832 47.9489 6.832C49.8369 6.832 51.4849 7.216 52.8929 7.984C54.3329 8.752 55.4369 9.76 56.2049 11.008V7.216H64.4129V34H56.2049V30.208C55.4049 31.456 54.2849 32.464 52.8449 33.232C51.4369 34 49.7889 34.384 47.9009 34.384C45.7249 34.384 43.7409 33.824 41.9489 32.704C40.1569 31.552 38.7329 29.936 37.6769 27.856C36.6529 25.744 36.1409 23.312 36.1409 20.56ZM56.2049 20.608C56.2049 18.56 55.6289 16.944 54.4769 15.76C53.3569 14.576 51.9809 13.984 50.3489 13.984C48.7169 13.984 47.3249 14.576 46.1729 15.76C45.0529 16.912 44.4929 18.512 44.4929 20.56C44.4929 22.608 45.0529 24.24 46.1729 25.456C47.3249 26.64 48.7169 27.232 50.3489 27.232C51.9809 27.232 53.3569 26.64 54.4769 25.456C55.6289 24.272 56.2049 22.656 56.2049 20.608ZM97.711 7.216L80.911 46.72H72.079L78.223 33.088L67.327 7.216H76.495L82.687 23.968L88.831 7.216H97.711ZM99.0471 20.56C99.0471 17.808 99.5591 15.392 100.583 13.312C101.639 11.232 103.063 9.632 104.855 8.512C106.647 7.392 108.647 6.832 110.855 6.832C112.743 6.832 114.391 7.216 115.799 7.984C117.239 8.752 118.343 9.76 119.111 11.008V7.216H127.319V34H119.111V30.208C118.311 31.456 117.191 32.464 115.751 33.232C114.343 34 112.695 34.384 110.807 34.384C108.631 34.384 106.647 33.824 104.855 32.704C103.063 31.552 101.639 29.936 100.583 27.856C99.5591 25.744 99.0471 23.312 99.0471 20.56ZM119.111 20.608C119.111 18.56 118.535 16.944 117.383 15.76C116.263 14.576 114.887 13.984 113.255 13.984C111.623 13.984 110.231 14.576 109.079 15.76C107.959 16.912 107.399 18.512 107.399 20.56C107.399 22.608 107.959 24.24 109.079 25.456C110.231 26.64 111.623 27.232 113.255 27.232C114.887 27.232 116.263 26.64 117.383 25.456C118.535 24.272 119.111 22.656 119.111 20.608ZM149.577 6.928C152.713 6.928 155.209 7.952 157.065 10C158.953 12.016 159.897 14.8 159.897 18.352V34H151.737V19.456C151.737 17.664 151.273 16.272 150.345 15.28C149.417 14.288 148.169 13.792 146.601 13.792C145.033 13.792 143.785 14.288 142.857 15.28C141.929 16.272 141.465 17.664 141.465 19.456V34H133.257V7.216H141.465V10.768C142.297 9.584 143.417 8.656 144.825 7.984C146.233 7.28 147.817 6.928 149.577 6.928Z" fill="#62F9D5"/>
</svg>
